<?xml version="1.0" encoding="utf-8"?>
<!-- Generator: Adobe Illustrator 24.0.2, SVG Export Plug-In . SVG Version: 6.00 Build 0)  -->
<svg version="1.1" id="Layer_1" xmlns="http://www.w3.org/2000/svg" xmlns:xlink="http://www.w3.org/1999/xlink" x="0px" y="0px"
	 viewBox="0 0 717 295" style="enable-background:new 0 0 717 295;" xml:space="preserve">
<style type="text/css">
	.st0{enable-background:new    ;}
	.st1{fill:#FFFFFF;}
</style>
<g>
	<g class="st0">
		<path class="st1" d="M372,115.9c-3.6,6.5-8.8,11.6-15.6,15.3c-6.8,3.6-14.7,5.5-23.9,5.5h-32.5v-86h32.5c9.2,0,17.2,1.8,24,5.4
			c6.7,3.6,11.9,8.6,15.5,15.1c3.6,6.5,5.4,13.9,5.4,22.4C377.5,101.9,375.6,109.4,372,115.9z M349.7,111.6
			c4.5-4.3,6.7-10.3,6.7-18.1c0-7.8-2.3-13.8-6.7-18.1c-4.5-4.3-10.8-6.4-18.9-6.4h-9.9V118h9.9C338.9,118,345.2,115.9,349.7,111.6z
			"/>
		<path class="st1" d="M404.9,68.8l16.3,41.6l15.2-41.6h23L417.1,169h-22.9l15.9-34.9l-28.5-65.3H404.9z"/>
		<path class="st1" d="M487.1,46.6v90h-20.8v-90H487.1z"/>
		<path class="st1" d="M540.7,71.4c3.7,2.4,6.5,5.6,8.3,9.6V68.8h20.7v67.9h-20.7v-12.3c-1.8,4.1-4.5,7.3-8.3,9.6
			c-3.7,2.4-8.2,3.5-13.4,3.5c-5.6,0-10.6-1.4-15-4.2c-4.4-2.8-7.9-6.8-10.5-12.1c-2.6-5.3-3.8-11.4-3.8-18.5
			c0-7.1,1.3-13.3,3.8-18.5c2.6-5.2,6-9.2,10.5-12c4.4-2.8,9.4-4.2,15-4.2C532.5,67.9,536.9,69.1,540.7,71.4z M523.2,90.5
			c-2.7,2.9-4.1,7-4.1,12.2c0,5.2,1.4,9.2,4.1,12.2c2.7,2.9,6.3,4.4,10.8,4.4c4.4,0,8-1.5,10.8-4.5c2.8-3,4.2-7,4.2-12
			c0-5.1-1.4-9.1-4.2-12.1c-2.8-3-6.4-4.4-10.8-4.4C529.5,86.1,525.9,87.6,523.2,90.5z"/>
		<path class="st1" d="M645.6,75.8c4.6,5.2,6.9,12.3,6.9,21.4v39.4h-20.8v-37c0-4.5-1.2-8.1-3.6-10.6c-2.4-2.6-5.6-3.8-9.5-3.8
			c-4.2,0-7.6,1.3-10,4c-2.5,2.7-3.7,6.5-3.7,11.4v36H584V68.8h20.8v12.4c1.9-4.1,4.8-7.3,8.7-9.6c3.8-2.4,8.4-3.5,13.6-3.5
			C634.8,68,641,70.6,645.6,75.8z"/>
	</g>
	<g class="st0">
		<path class="st1" d="M372,242.9c-3.6,6.5-8.8,11.6-15.6,15.3c-6.8,3.6-14.7,5.5-23.9,5.5h-32.5v-86h32.5c9.2,0,17.2,1.8,24,5.4
			c6.7,3.6,11.9,8.6,15.5,15.1c3.6,6.5,5.4,13.9,5.4,22.4C377.5,228.9,375.6,236.4,372,242.9z M349.7,238.6
			c4.5-4.3,6.7-10.3,6.7-18.1c0-7.8-2.3-13.8-6.7-18.1c-4.5-4.3-10.8-6.4-18.9-6.4h-9.9V245h9.9C338.9,245,345.2,242.9,349.7,238.6z
			"/>
		<path class="st1" d="M428.4,198.4c3.7,2.4,6.5,5.6,8.3,9.6v-12.3h20.7v67.9h-20.7v-12.3c-1.8,4.1-4.5,7.3-8.3,9.6
			c-3.7,2.4-8.2,3.5-13.4,3.5c-5.6,0-10.6-1.4-15-4.2c-4.4-2.8-7.9-6.8-10.5-12.1c-2.6-5.3-3.8-11.4-3.8-18.5
			c0-7.1,1.3-13.3,3.8-18.5c2.6-5.2,6-9.2,10.5-12c4.4-2.8,9.4-4.2,15-4.2C420.2,194.9,424.7,196.1,428.4,198.4z M411,217.5
			c-2.7,2.9-4.1,7-4.1,12.2c0,5.2,1.4,9.2,4.1,12.2c2.7,2.9,6.3,4.4,10.8,4.4c4.4,0,8-1.5,10.8-4.5c2.8-3,4.2-7,4.2-12
			c0-5.1-1.4-9.1-4.2-12.1c-2.8-3-6.4-4.4-10.8-4.4C417.3,213.1,413.7,214.6,411,217.5z"/>
		<path class="st1" d="M503.1,243.3l14.7-47.6h22.1l-24.1,67.9h-25.8L466,195.8h22.1L503.1,243.3z"/>
		<path class="st1" d="M550,168.8c2.3-2.1,5.3-3.1,9-3.1c3.7,0,6.7,1,9,3.1c2.3,2.1,3.4,4.7,3.4,7.8c0,3.1-1.1,5.7-3.4,7.7
			c-2.3,2.1-5.3,3.1-9,3.1c-3.7,0-6.7-1-9-3.1c-2.3-2.1-3.4-4.6-3.4-7.7C546.6,173.5,547.8,170.9,550,168.8z M569.4,195.8v67.9
			h-20.8v-67.9H569.4z"/>
		<path class="st1" d="M647.6,233.5h-47.1c0.2,5.1,1.5,8.8,3.9,11c2.4,2.2,5.4,3.3,9,3.3c3.1,0,5.6-0.8,7.7-2.3c2-1.5,3.4-3.5,4-6
			h22c-0.9,4.8-2.8,9.1-5.8,12.8c-3,3.8-6.8,6.7-11.4,8.9c-4.6,2.1-9.8,3.2-15.4,3.2c-6.6,0-12.5-1.4-17.7-4.2
			c-5.1-2.8-9.2-6.8-12.1-12.1c-2.9-5.3-4.4-11.4-4.4-18.5c0-7.1,1.4-13.3,4.3-18.5c2.9-5.2,6.9-9.2,12.1-12
			c5.2-2.8,11.1-4.2,17.8-4.2c6.7,0,12.6,1.4,17.8,4.1c5.1,2.8,9.1,6.6,11.9,11.6s4.2,10.7,4.2,17.2
			C648.2,229.6,648,231.4,647.6,233.5z M623.5,214.7c-2.5-2.2-5.5-3.3-9.2-3.3c-3.8,0-7,1.1-9.5,3.4c-2.5,2.3-3.9,5.6-4.3,10h26.5
			C627.2,220.2,626,216.9,623.5,214.7z"/>
		<path class="st1" d="M704.3,201.3c5.1,4.3,8.4,10,9.7,17h-19.5c-0.6-2.8-1.8-4.9-3.8-6.5c-2-1.6-4.5-2.4-7.5-2.4
			c-2.4,0-4.1,0.5-5.4,1.5c-1.2,1-1.8,2.5-1.8,4.3c0,2.1,1.1,3.7,3.3,4.7c2.2,1.1,5.7,2.1,10.5,3.2c5.2,1.2,9.4,2.5,12.8,3.7
			c3.3,1.3,6.2,3.3,8.6,6.1c2.4,2.8,3.6,6.6,3.6,11.4c0,3.9-1.1,7.3-3.2,10.3c-2.1,3-5.1,5.4-9.1,7.1c-4,1.7-8.7,2.6-14.1,2.6
			c-9.2,0-16.5-2-22-6.1c-5.5-4.1-8.9-9.9-10.1-17.4h20.1c0.3,2.9,1.6,5.2,3.7,6.7c2.1,1.5,4.9,2.3,8.3,2.3c2.4,0,4.1-0.5,5.4-1.6
			c1.2-1.1,1.8-2.5,1.8-4.3c0-2.4-1.1-4-3.3-5c-2.2-1-5.9-2.1-10.9-3.2c-5-1.1-9.2-2.2-12.4-3.4c-3.2-1.2-6-3.2-8.4-5.9
			c-2.4-2.7-3.5-6.4-3.5-11.1c0-6.1,2.3-11,6.9-14.8c4.6-3.8,11.1-5.7,19.6-5.7C692.3,194.9,699.1,197,704.3,201.3z"/>
	</g>
	<g class="st0">
		<path class="st1" d="M216.4,236.4c-14.7,15.4-32.7,25.8-54,31c-21.3,5.2-44.7,4.5-70-2.1L2.8,242L64.6,4.4l89.7,23.4
			c25.5,6.6,46.3,17.3,62.3,32c16,14.7,26.7,32.3,32,52.8c5.3,20.5,4.9,42.4-1.1,65.7C241.5,201.6,231.1,221,216.4,236.4z
			 M157.7,208.4c15.5-8.6,26.1-23.7,31.7-45.2c5.6-21.5,3.7-39.8-5.6-54.9c-9.3-15.1-25.2-25.6-47.6-31.4L109,69.8L73.6,205.5
			l27.2,7.1C123.2,218.4,142.2,217,157.7,208.4z"/>
	</g>
</g>
</svg>
