<?xml version="1.0" encoding="utf-8"?>
<!-- Generator: Adobe Illustrator 23.0.6, SVG Export Plug-In . SVG Version: 6.00 Build 0)  -->
<svg version="1.1" id="Layer_1" xmlns="http://www.w3.org/2000/svg" xmlns:xlink="http://www.w3.org/1999/xlink" x="0px" y="0px"
	 viewBox="0 0 454 570" style="enable-background:new 0 0 454 570;" xml:space="preserve">
<style type="text/css">
	.st0{fill:none;stroke:#3FA9F5;stroke-width:50;stroke-miterlimit:10;}
	.st1{fill:#3FA9F5;}
	.st2{fill:#FFFFFF;}
</style>
<g>
	<path class="st0" d="M227,389.8L227,389.8c-80.4,0-145.5-65.1-145.5-145.5v-71.5c0-80.4,65.1-145.5,145.5-145.5h0
		c80.4,0,145.5,65.1,145.5,145.5v71.5C372.5,324.6,307.4,389.8,227,389.8z"/>
	<path class="st1" d="M397.1,569.8H57c-27.9,0-50.6-22.6-50.6-50.6V293.9c0-27.9,22.6-50.6,50.6-50.6h340
		c27.9,0,50.6,22.6,50.6,50.6v225.3C447.6,547.1,425,569.8,397.1,569.8z"/>
	<g>
		<circle class="st2" cx="227" cy="375" r="39"/>
		<g>
			<path class="st2" d="M264.9,477.3c-25.2,0-50.5,0-75.7,0c5.8-25.2,11.7-50.5,17.5-75.7c13.6,0,27.2,0,40.8,0
				C253.2,426.8,259,452,264.9,477.3z"/>
		</g>
	</g>
</g>
</svg>
