<?xml version="1.0" encoding="utf-8"?>
<!-- Generator: Adobe Illustrator 24.0.2, SVG Export Plug-In . SVG Version: 6.00 Build 0)  -->
<svg version="1.1" id="Layer_1" xmlns="http://www.w3.org/2000/svg" xmlns:xlink="http://www.w3.org/1999/xlink" x="0px" y="0px"
	 viewBox="0 0 717 295" style="enable-background:new 0 0 717 295;" xml:space="preserve">
<style type="text/css">
	.st0{enable-background:new    ;}
	.st1{fill:#8A8A8A;}
</style>
<g>
	<g class="st0">
		<path class="st1" d="M372,115.2c-3.6,6.5-8.8,11.6-15.6,15.3c-6.8,3.6-14.7,5.5-23.9,5.5h-32.5V50h32.5c9.2,0,17.2,1.8,24,5.4
			c6.7,3.6,11.9,8.6,15.5,15.1c3.6,6.5,5.4,13.9,5.4,22.4C377.5,101.2,375.6,108.7,372,115.2z M349.7,110.9
			c4.5-4.3,6.7-10.3,6.7-18.1c0-7.8-2.3-13.8-6.7-18.1c-4.5-4.3-10.8-6.4-18.9-6.4h-9.9v49.1h9.9
			C338.9,117.4,345.2,115.2,349.7,110.9z"/>
		<path class="st1" d="M404.9,68.1l16.3,41.6l15.2-41.6h23l-42.3,100.2h-22.9l15.9-34.9l-28.5-65.3H404.9z"/>
		<path class="st1" d="M487.1,46v90h-20.8V46H487.1z"/>
		<path class="st1" d="M540.7,70.8c3.7,2.4,6.5,5.6,8.3,9.6V68.1h20.7V136h-20.7v-12.3c-1.8,4.1-4.5,7.3-8.3,9.6
			c-3.7,2.4-8.2,3.5-13.4,3.5c-5.6,0-10.6-1.4-15-4.2c-4.4-2.8-7.9-6.8-10.5-12.1c-2.6-5.3-3.8-11.4-3.8-18.5
			c0-7.1,1.3-13.3,3.8-18.5c2.6-5.2,6-9.2,10.5-12c4.4-2.8,9.4-4.2,15-4.2C532.5,67.3,536.9,68.4,540.7,70.8z M523.2,89.9
			c-2.7,2.9-4.1,7-4.1,12.2c0,5.2,1.4,9.2,4.1,12.2c2.7,2.9,6.3,4.4,10.8,4.4c4.4,0,8-1.5,10.8-4.5c2.8-3,4.2-7,4.2-12
			c0-5.1-1.4-9.1-4.2-12.1c-2.8-3-6.4-4.4-10.8-4.4C529.5,85.5,525.9,87,523.2,89.9z"/>
		<path class="st1" d="M645.6,75.2c4.6,5.2,6.9,12.3,6.9,21.4V136h-20.8V99c0-4.5-1.2-8.1-3.6-10.6c-2.4-2.6-5.6-3.8-9.5-3.8
			c-4.2,0-7.6,1.3-10,4c-2.5,2.7-3.7,6.5-3.7,11.4v36H584V68.1h20.8v12.4c1.9-4.1,4.8-7.3,8.7-9.6c3.8-2.4,8.4-3.5,13.6-3.5
			C634.8,67.4,641,70,645.6,75.2z"/>
	</g>
	<g class="st0">
		<path class="st1" d="M372,242.2c-3.6,6.5-8.8,11.6-15.6,15.3c-6.8,3.6-14.7,5.5-23.9,5.5h-32.5v-86h32.5c9.2,0,17.2,1.8,24,5.4
			c6.7,3.6,11.9,8.6,15.5,15.1c3.6,6.5,5.4,13.9,5.4,22.4C377.5,228.2,375.6,235.7,372,242.2z M349.7,237.9
			c4.5-4.3,6.7-10.3,6.7-18.1c0-7.8-2.3-13.8-6.7-18.1c-4.5-4.3-10.8-6.4-18.9-6.4h-9.9v49.1h9.9
			C338.9,244.4,345.2,242.2,349.7,237.9z"/>
		<path class="st1" d="M428.4,197.8c3.7,2.4,6.5,5.6,8.3,9.6v-12.3h20.7V263h-20.7v-12.3c-1.8,4.1-4.5,7.3-8.3,9.6
			c-3.7,2.4-8.2,3.5-13.4,3.5c-5.6,0-10.6-1.4-15-4.2c-4.4-2.8-7.9-6.8-10.5-12.1c-2.6-5.3-3.8-11.4-3.8-18.5
			c0-7.1,1.3-13.3,3.8-18.5c2.6-5.2,6-9.2,10.5-12c4.4-2.8,9.4-4.2,15-4.2C420.2,194.3,424.7,195.4,428.4,197.8z M411,216.9
			c-2.7,2.9-4.1,7-4.1,12.2c0,5.2,1.4,9.2,4.1,12.2c2.7,2.9,6.3,4.4,10.8,4.4c4.4,0,8-1.5,10.8-4.5c2.8-3,4.2-7,4.2-12
			c0-5.1-1.4-9.1-4.2-12.1c-2.8-3-6.4-4.4-10.8-4.4C417.3,212.5,413.7,214,411,216.9z"/>
		<path class="st1" d="M503.1,242.7l14.7-47.6h22.1L515.8,263h-25.8L466,195.1h22.1L503.1,242.7z"/>
		<path class="st1" d="M550,168.2c2.3-2.1,5.3-3.1,9-3.1c3.7,0,6.7,1,9,3.1c2.3,2.1,3.4,4.7,3.4,7.8c0,3.1-1.1,5.7-3.4,7.7
			c-2.3,2.1-5.3,3.1-9,3.1c-3.7,0-6.7-1-9-3.1c-2.3-2.1-3.4-4.6-3.4-7.7C546.6,172.9,547.8,170.2,550,168.2z M569.4,195.1V263h-20.8
			v-67.9H569.4z"/>
		<path class="st1" d="M647.6,232.8h-47.1c0.2,5.1,1.5,8.8,3.9,11c2.4,2.2,5.4,3.3,9,3.3c3.1,0,5.6-0.8,7.7-2.3c2-1.5,3.4-3.5,4-6
			h22c-0.9,4.8-2.8,9.1-5.8,12.8c-3,3.8-6.8,6.7-11.4,8.9c-4.6,2.1-9.8,3.2-15.4,3.2c-6.6,0-12.5-1.4-17.7-4.2
			c-5.1-2.8-9.2-6.8-12.1-12.1c-2.9-5.3-4.4-11.4-4.4-18.5c0-7.1,1.4-13.3,4.3-18.5c2.9-5.2,6.9-9.2,12.1-12
			c5.2-2.8,11.1-4.2,17.8-4.2c6.7,0,12.6,1.4,17.8,4.1c5.1,2.8,9.1,6.6,11.9,11.6s4.2,10.7,4.2,17.2
			C648.2,228.9,648,230.8,647.6,232.8z M623.5,214c-2.5-2.2-5.5-3.3-9.2-3.3c-3.8,0-7,1.1-9.5,3.4c-2.5,2.3-3.9,5.6-4.3,10h26.5
			C627.2,219.6,626,216.3,623.5,214z"/>
		<path class="st1" d="M704.3,200.7c5.1,4.3,8.4,10,9.7,17h-19.5c-0.6-2.8-1.8-4.9-3.8-6.5c-2-1.6-4.5-2.4-7.5-2.4
			c-2.4,0-4.1,0.5-5.4,1.5c-1.2,1-1.8,2.5-1.8,4.3c0,2.1,1.1,3.7,3.3,4.7c2.2,1.1,5.7,2.1,10.5,3.2c5.2,1.2,9.4,2.5,12.8,3.7
			c3.3,1.3,6.2,3.3,8.6,6.1c2.4,2.8,3.6,6.6,3.6,11.4c0,3.9-1.1,7.3-3.2,10.3c-2.1,3-5.1,5.4-9.1,7.1c-4,1.7-8.7,2.6-14.1,2.6
			c-9.2,0-16.5-2-22-6.1c-5.5-4.1-8.9-9.9-10.1-17.4h20.1c0.3,2.9,1.6,5.2,3.7,6.7c2.1,1.5,4.9,2.3,8.3,2.3c2.4,0,4.1-0.5,5.4-1.6
			c1.2-1.1,1.8-2.5,1.8-4.3c0-2.4-1.1-4-3.3-5c-2.2-1-5.9-2.1-10.9-3.2c-5-1.1-9.2-2.2-12.4-3.4c-3.2-1.2-6-3.2-8.4-5.9
			c-2.4-2.7-3.5-6.4-3.5-11.1c0-6.1,2.3-11,6.9-14.8c4.6-3.8,11.1-5.7,19.6-5.7C692.3,194.3,699.1,196.4,704.3,200.7z"/>
	</g>
	<g class="st0">
		<path class="st1" d="M216.4,235.8c-14.7,15.4-32.7,25.8-54,31c-21.3,5.2-44.7,4.5-70-2.1L2.8,241.3L64.6,3.8l89.7,23.4
			c25.5,6.6,46.3,17.3,62.3,32c16,14.7,26.7,32.3,32,52.8c5.3,20.5,4.9,42.4-1.1,65.7C241.5,201,231.1,220.4,216.4,235.8z
			 M157.7,207.8c15.5-8.6,26.1-23.7,31.7-45.2c5.6-21.5,3.7-39.8-5.6-54.9c-9.3-15.1-25.2-25.6-47.6-31.4L109,69.1L73.6,204.9
			l27.2,7.1C123.2,217.8,142.2,216.4,157.7,207.8z"/>
	</g>
</g>
</svg>
