<?xml version="1.0" encoding="utf-8"?>
<!-- Generator: Adobe Illustrator 23.0.6, SVG Export Plug-In . SVG Version: 6.00 Build 0)  -->
<svg version="1.1" id="Layer_1" xmlns="http://www.w3.org/2000/svg" xmlns:xlink="http://www.w3.org/1999/xlink" x="0px" y="0px"
	 viewBox="0 0 1573 1080" style="enable-background:new 0 0 1573 1080;" xml:space="preserve">
<style type="text/css">
	.st0{fill:#00A1D4;}
	.st1{fill:#004B74;}
	.st2{fill:#3F9DF5;}
	.st3{fill:#3FA9F5;}
	.st4{fill:#FFDF35;}
	.st5{fill:#FFFFFF;}
	.st6{fill:#FF5A3F;}
	.st7{fill:#FFD13F;}
</style>
<g>
	<path class="st0" d="M1517.91,713.34L483.03,1052.1c-39.99,13.09-83.03-8.72-96.12-48.71L202.85,441.15
		c-13.09-39.99,8.72-83.03,48.71-96.12L1286.45,6.26c39.99-13.09,83.03,8.72,96.12,48.71l184.05,562.25
		C1579.71,657.21,1557.9,700.25,1517.91,713.34z"/>
</g>
<rect x="210.42" y="300.74" transform="matrix(0.9504 -0.3111 0.3111 0.9504 -72.3866 276.6733)" class="st1" width="1241.31" height="129"/>
<g>
	<path class="st2" d="M1328.13,1079H76.87C34.42,1079,0,1044.58,0,1002.13V357.87C0,315.42,34.42,281,76.87,281h1251.25
		c42.46,0,76.87,34.42,76.87,76.87v644.25C1405,1044.58,1370.58,1079,1328.13,1079z"/>
</g>
<g>
	<path class="st3" d="M1328.8,1025H76.2C34.11,1025,0,990.89,0,948.8V357.2C0,315.11,34.11,281,76.2,281h1252.6
		c42.08,0,76.2,34.11,76.2,76.2v591.6C1405,990.89,1370.89,1025,1328.8,1025z"/>
</g>
<path class="st4" d="M290.62,600H106.38C97.88,600,91,593.12,91,584.62V400.38c0-8.49,6.88-15.38,15.38-15.38h184.25
	c8.49,0,15.38,6.88,15.38,15.38v184.25C306,593.12,299.12,600,290.62,600z"/>
<path class="st5" d="M394.5,746h-277c-14.64,0-26.5-11.86-26.5-26.5l0,0c0-14.64,11.86-26.5,26.5-26.5h277
	c14.64,0,26.5,11.86,26.5,26.5l0,0C421,734.14,409.14,746,394.5,746z"/>
<path class="st5" d="M646.5,847h-529c-14.64,0-26.5-11.86-26.5-26.5l0,0c0-14.64,11.86-26.5,26.5-26.5h529
	c14.64,0,26.5,11.86,26.5,26.5l0,0C673,835.14,661.14,847,646.5,847z"/>
<path class="st5" d="M220.5,954h-103c-14.64,0-26.5-11.86-26.5-26.5l0,0c0-14.64,11.86-26.5,26.5-26.5h103
	c14.64,0,26.5,11.86,26.5,26.5l0,0C247,942.14,235.14,954,220.5,954z"/>
<path class="st5" d="M444.5,954h-103c-14.64,0-26.5-11.86-26.5-26.5l0,0c0-14.64,11.86-26.5,26.5-26.5h103
	c14.64,0,26.5,11.86,26.5,26.5l0,0C471,942.14,459.14,954,444.5,954z"/>
<path class="st5" d="M668.5,954h-103c-14.64,0-26.5-11.86-26.5-26.5l0,0c0-14.64,11.86-26.5,26.5-26.5h103
	c14.64,0,26.5,11.86,26.5,26.5l0,0C695,942.14,683.14,954,668.5,954z"/>
<path class="st5" d="M904.5,954h-103c-14.64,0-26.5-11.86-26.5-26.5l0,0c0-14.64,11.86-26.5,26.5-26.5h103
	c14.64,0,26.5,11.86,26.5,26.5l0,0C931,942.14,919.14,954,904.5,954z"/>
<circle class="st6" cx="1246.5" cy="907.5" r="86.5"/>
<ellipse class="st7" cx="1125.5" cy="907" rx="86.5" ry="87"/>
</svg>
