<?xml version="1.0" encoding="utf-8"?>
<!-- Generator: Adobe Illustrator 23.0.6, SVG Export Plug-In . SVG Version: 6.00 Build 0)  -->
<svg version="1.1" id="Layer_1" xmlns="http://www.w3.org/2000/svg" xmlns:xlink="http://www.w3.org/1999/xlink" x="0px" y="0px"
	 viewBox="0 0 1920 1080" style="enable-background:new 0 0 1920 1080;" xml:space="preserve">
<style type="text/css">
	.st0{fill:#F2F2F2;}
	.st1{fill:#FFFFFF;}
	.st2{fill:#FF0000;}
	.st3{fill:#FBB03B;}
	.st4{fill:#39B54A;}
	.st5{fill:#333333;}
	.st6{fill:#6AB9FF;}
	.st7{clip-path:url(#SVGID_2_);fill:#003F11;}
	.st8{fill:#C4C4C4;}
	.st9{fill:none;stroke:#000000;stroke-miterlimit:10;}
</style>
<g>
	<g>
		<g>
			<g>
				<path class="st0" d="M1723.6,973.5H196.4c-20.1,0-36.4-16.3-36.4-36.4V142.9c0-20.1,16.3-36.4,36.4-36.4h1527.2
					c20.1,0,36.4,16.3,36.4,36.4v794.2C1760,957.2,1743.7,973.5,1723.6,973.5z"/>
			</g>
			<rect x="160" y="205.5" class="st1" width="1600" height="704"/>
			<path class="st1" d="M1322.8,562.6h-23c-3,0-5.5-2.5-5.5-5.5l0,0c0-3,2.5-5.5,5.5-5.5h23c3,0,5.5,2.5,5.5,5.5l0,0
				C1328.3,560.1,1325.8,562.6,1322.8,562.6z"/>
			<path class="st1" d="M1322.8,562.6h-23c-3,0-5.5-2.5-5.5-5.5l0,0c0-3,2.5-5.5,5.5-5.5h23c3,0,5.5,2.5,5.5,5.5l0,0
				C1328.3,560.1,1325.8,562.6,1322.8,562.6z"/>
			<path class="st1" d="M1322.8,562.6h-23c-3,0-5.5-2.5-5.5-5.5l0,0c0-3,2.5-5.5,5.5-5.5h23c3,0,5.5,2.5,5.5,5.5l0,0
				C1328.3,560.1,1325.8,562.6,1322.8,562.6z"/>
		</g>
	</g>
</g>
<g>
	<circle class="st2" cx="223" cy="154.5" r="25"/>
	<circle class="st3" cx="299" cy="154.5" r="25"/>
	<circle class="st4" cx="375" cy="154.5" r="25"/>
	<path class="st5" d="M790.1,396.5H264.9c-4.9,0-8.9-4-8.9-8.9v-14.2c0-4.9,4-8.9,8.9-8.9h525.2c4.9,0,8.9,4,8.9,8.9v14.2
		C799,392.5,795,396.5,790.1,396.5z"/>
	<path class="st5" d="M360.1,457.5h-93.2c-4.9,0-8.9-4-8.9-8.9v-13.2c0-4.9,4-8.9,8.9-8.9h93.2c4.9,0,8.9,4,8.9,8.9v13.2
		C369,453.5,365,457.5,360.1,457.5z"/>
	<path class="st5" d="M525.1,457.5H393.9c-4.9,0-8.9-4-8.9-8.9v-13.2c0-4.9,4-8.9,8.9-8.9h131.2c4.9,0,8.9,4,8.9,8.9v13.2
		C534,453.5,530,457.5,525.1,457.5z"/>
	<path class="st5" d="M605.1,457.5h-51.2c-4.9,0-8.9-4-8.9-8.9v-13.2c0-4.9,4-8.9,8.9-8.9h51.2c4.9,0,8.9,4,8.9,8.9v13.2
		C614,453.5,610,457.5,605.1,457.5z"/>
	<path class="st5" d="M732.1,457.5h-93.2c-4.9,0-8.9-4-8.9-8.9v-13.2c0-4.9,4-8.9,8.9-8.9h93.2c4.9,0,8.9,4,8.9,8.9v13.2
		C741,453.5,737,457.5,732.1,457.5z"/>
	<path class="st5" d="M908.1,457.5H765.9c-4.9,0-8.9-4-8.9-8.9v-13.2c0-4.9,4-8.9,8.9-8.9h142.2c4.9,0,8.9,4,8.9,8.9v13.2
		C917,453.5,913,457.5,908.1,457.5z"/>
	<path class="st5" d="M571.1,507.5H266.9c-4.9,0-8.9-4-8.9-8.9v-13.2c0-4.9,4-8.9,8.9-8.9h304.2c4.9,0,8.9,4,8.9,8.9v13.2
		C580,503.5,576,507.5,571.1,507.5z"/>
	<path class="st5" d="M698.1,507.5h-93.2c-4.9,0-8.9-4-8.9-8.9v-13.2c0-4.9,4-8.9,8.9-8.9h93.2c4.9,0,8.9,4,8.9,8.9v13.2
		C707,503.5,703,507.5,698.1,507.5z"/>
	<path class="st5" d="M798.1,507.5h-63.2c-4.9,0-8.9-4-8.9-8.9v-13.2c0-4.9,4-8.9,8.9-8.9h63.2c4.9,0,8.9,4,8.9,8.9v13.2
		C807,503.5,803,507.5,798.1,507.5z"/>
	<path class="st5" d="M921.1,507.5h-93.2c-4.9,0-8.9-4-8.9-8.9v-13.2c0-4.9,4-8.9,8.9-8.9h93.2c4.9,0,8.9,4,8.9,8.9v13.2
		C930,503.5,926,507.5,921.1,507.5z"/>
	<path class="st5" d="M426.1,557.5H266.9c-4.9,0-8.9-4-8.9-8.9v-13.2c0-4.9,4-8.9,8.9-8.9h159.2c4.9,0,8.9,4,8.9,8.9v13.2
		C435,553.5,431,557.5,426.1,557.5z"/>
	<path class="st5" d="M549.1,557.5h-93.2c-4.9,0-8.9-4-8.9-8.9v-13.2c0-4.9,4-8.9,8.9-8.9h93.2c4.9,0,8.9,4,8.9,8.9v13.2
		C558,553.5,554,557.5,549.1,557.5z"/>
	<path class="st5" d="M643.1,557.5h-68.2c-4.9,0-8.9-4-8.9-8.9v-13.2c0-4.9,4-8.9,8.9-8.9h68.2c4.9,0,8.9,4,8.9,8.9v13.2
		C652,553.5,648,557.5,643.1,557.5z"/>
	<path class="st5" d="M798.1,557.5H670.9c-4.9,0-8.9-4-8.9-8.9v-13.2c0-4.9,4-8.9,8.9-8.9h127.2c4.9,0,8.9,4,8.9,8.9v13.2
		C807,553.5,803,557.5,798.1,557.5z"/>
	<path class="st5" d="M908.1,557.5h-80.2c-4.9,0-8.9-4-8.9-8.9v-13.2c0-4.9,4-8.9,8.9-8.9h80.2c4.9,0,8.9,4,8.9,8.9v13.2
		C917,553.5,913,557.5,908.1,557.5z"/>
	<path class="st5" d="M395.1,607.5H267.9c-4.9,0-8.9-4-8.9-8.9v-13.2c0-4.9,4-8.9,8.9-8.9h127.2c4.9,0,8.9,4,8.9,8.9v13.2
		C404,603.5,400,607.5,395.1,607.5z"/>
	<path class="st5" d="M474.1,607.5h-46.2c-4.9,0-8.9-4-8.9-8.9v-13.2c0-4.9,4-8.9,8.9-8.9h46.2c4.9,0,8.9,4,8.9,8.9v13.2
		C483,603.5,479,607.5,474.1,607.5z"/>
	<path class="st5" d="M777.1,607.5H505.9c-4.9,0-8.9-4-8.9-8.9v-13.2c0-4.9,4-8.9,8.9-8.9h271.2c4.9,0,8.9,4,8.9,8.9v13.2
		C786,603.5,782,607.5,777.1,607.5z"/>
	<path class="st5" d="M881.1,607.5h-77.2c-4.9,0-8.9-4-8.9-8.9v-13.2c0-4.9,4-8.9,8.9-8.9h77.2c4.9,0,8.9,4,8.9,8.9v13.2
		C890,603.5,886,607.5,881.1,607.5z"/>
	<path class="st5" d="M705.1,657.5H267.9c-4.9,0-8.9-4-8.9-8.9v-13.2c0-4.9,4-8.9,8.9-8.9h437.2c4.9,0,8.9,4,8.9,8.9v13.2
		C714,653.5,710,657.5,705.1,657.5z"/>
	<path class="st5" d="M780.1,657.5h-46.2c-4.9,0-8.9-4-8.9-8.9v-13.2c0-4.9,4-8.9,8.9-8.9h46.2c4.9,0,8.9,4,8.9,8.9v13.2
		C789,653.5,785,657.5,780.1,657.5z"/>
	<path class="st5" d="M854.1,657.5h-46.2c-4.9,0-8.9-4-8.9-8.9v-13.2c0-4.9,4-8.9,8.9-8.9h46.2c4.9,0,8.9,4,8.9,8.9v13.2
		C863,653.5,859,657.5,854.1,657.5z"/>
	<path class="st5" d="M451.1,707.5H267.9c-4.9,0-8.9-4-8.9-8.9v-13.2c0-4.9,4-8.9,8.9-8.9h183.2c4.9,0,8.9,4,8.9,8.9v13.2
		C460,703.5,456,707.5,451.1,707.5z"/>
	<path class="st5" d="M798.1,707.5H480.9c-4.9,0-8.9-4-8.9-8.9v-13.2c0-4.9,4-8.9,8.9-8.9h317.2c4.9,0,8.9,4,8.9,8.9v13.2
		C807,703.5,803,707.5,798.1,707.5z"/>
	<path class="st5" d="M323.1,757.5h-55.2c-4.9,0-8.9-4-8.9-8.9v-13.2c0-4.9,4-8.9,8.9-8.9h55.2c4.9,0,8.9,4,8.9,8.9v13.2
		C332,753.5,328,757.5,323.1,757.5z"/>
	<path class="st5" d="M579.1,757.5H354.9c-4.9,0-8.9-4-8.9-8.9v-13.2c0-4.9,4-8.9,8.9-8.9h224.2c4.9,0,8.9,4,8.9,8.9v13.2
		C588,753.5,584,757.5,579.1,757.5z"/>
	<path class="st5" d="M810.1,757.5H606.9c-4.9,0-8.9-4-8.9-8.9v-13.2c0-4.9,4-8.9,8.9-8.9h203.2c4.9,0,8.9,4,8.9,8.9v13.2
		C819,753.5,815,757.5,810.1,757.5z"/>
	<path class="st5" d="M454.1,807.5H270.9c-4.9,0-8.9-4-8.9-8.9v-13.2c0-4.9,4-8.9,8.9-8.9h183.2c4.9,0,8.9,4,8.9,8.9v13.2
		C463,803.5,459,807.5,454.1,807.5z"/>
	<path class="st5" d="M549.1,807.5h-68.2c-4.9,0-8.9-4-8.9-8.9v-13.2c0-4.9,4-8.9,8.9-8.9h68.2c4.9,0,8.9,4,8.9,8.9v13.2
		C558,803.5,554,807.5,549.1,807.5z"/>
	<path class="st5" d="M677.1,807.5H574.9c-4.9,0-8.9-4-8.9-8.9v-13.2c0-4.9,4-8.9,8.9-8.9h102.2c4.9,0,8.9,4,8.9,8.9v13.2
		C686,803.5,682,807.5,677.1,807.5z"/>
	<path class="st5" d="M822.1,807.5H702.9c-4.9,0-8.9-4-8.9-8.9v-13.2c0-4.9,4-8.9,8.9-8.9h119.2c4.9,0,8.9,4,8.9,8.9v13.2
		C831,803.5,827,807.5,822.1,807.5z"/>
	<g>
		<g>
			<circle id="XMLID_1_" class="st6" cx="1416.5" cy="540" r="178.5"/>
		</g>
		<g>
			<g>
				<defs>
					<circle id="SVGID_1_" cx="1416.5" cy="540" r="178.5"/>
				</defs>
				<clipPath id="SVGID_2_">
					<use xlink:href="#SVGID_1_"  style="overflow:visible;"/>
				</clipPath>
				<path class="st7" d="M1318.5,689.2"/>
			</g>
		</g>
	</g>
	<circle class="st8" cx="293" cy="295.5" r="39"/>
	<path class="st5" d="M1673.1,335.5h-142.2c-4.9,0-8.9-4-8.9-8.9v-13.2c0-4.9,4-8.9,8.9-8.9h142.2c4.9,0,8.9,4,8.9,8.9v13.2
		C1682,331.5,1678,335.5,1673.1,335.5z"/>
	<path class="st5" d="M1269.1,366.5h-142.2c-4.9,0-8.9-4-8.9-8.9v-13.2c0-4.9,4-8.9,8.9-8.9h142.2c4.9,0,8.9,4,8.9,8.9v13.2
		C1278,362.5,1274,366.5,1269.1,366.5z"/>
	<path class="st5" d="M1283.1,773.5h-142.2c-4.9,0-8.9-4-8.9-8.9v-13.2c0-4.9,4-8.9,8.9-8.9h142.2c4.9,0,8.9,4,8.9,8.9v13.2
		C1292,769.5,1288,773.5,1283.1,773.5z"/>
	<path class="st5" d="M1656.1,757.5h-142.2c-4.9,0-8.9-4-8.9-8.9v-13.2c0-4.9,4-8.9,8.9-8.9h142.2c4.9,0,8.9,4,8.9,8.9v13.2
		C1665,753.5,1661,757.5,1656.1,757.5z"/>
	<line class="st9" x1="1536" y1="726.5" x2="1510" y2="692.5"/>
	<line class="st9" x1="1238" y1="742.5" x2="1309" y2="682.5"/>
	<line class="st9" x1="1233" y1="366.5" x2="1292" y2="412.5"/>
	<line class="st9" x1="1577" y1="335.5" x2="1505" y2="384.5"/>
</g>
</svg>
