<?xml version="1.0" encoding="utf-8"?>
<!-- Generator: Adobe Illustrator 23.0.6, SVG Export Plug-In . SVG Version: 6.00 Build 0)  -->
<svg version="1.1" id="Layer_1" xmlns="http://www.w3.org/2000/svg" xmlns:xlink="http://www.w3.org/1999/xlink" x="0px" y="0px"
	 viewBox="0 0 1920 930.5" style="enable-background:new 0 0 1920 930.5;" xml:space="preserve">
<style type="text/css">
	.st0{fill:url(#XMLID_3_);}
	.st1{clip-path:url(#SVGID_2_);fill:url(#SVGID_3_);}
	.st2{clip-path:url(#SVGID_5_);fill:url(#SVGID_6_);}
	.st3{clip-path:url(#SVGID_8_);fill:url(#SVGID_9_);}
	.st4{clip-path:url(#SVGID_11_);fill:url(#SVGID_12_);}
	.st5{fill:url(#SVGID_13_);}
	.st6{fill:url(#SVGID_14_);}
	.st7{fill:url(#SVGID_15_);}
</style>
<g>
	<g>
		<g>
			
				<linearGradient id="XMLID_3_" gradientUnits="userSpaceOnUse" x1="-310.8595" y1="826.5828" x2="2290.1648" y2="826.5828" gradientTransform="matrix(1 0 0 -1 0 1080)">
				<stop  offset="0" style="stop-color:#130094"/>
				<stop  offset="1" style="stop-color:#0A006A"/>
			</linearGradient>
			<path id="XMLID_1_" class="st0" d="M-143.4,771c192.1-4,374.9,74,560.9,122.1c186,48.1,400.8,61.2,553.7-55.2
				c90-68.6,145.4-172.6,224.6-253.4c71-72.3,161.5-125.3,259.3-151.8c78.4-21.2,160.4-25.6,239.4-44.1
				c79.1-18.5,158.9-54.5,204.3-121.8c59.5-88,47.7-209.2,104-299.3c37-59.2,99.2-97.8,161.4-129.5
				c58.7-29.9,129.6-71.3,125.8-137.1c-2.2-37.8-31.3-69.9-65.5-86.3s-72.9-20-110.6-22.9c-459.8-34.8-921.9,3.8-1379.9,57.6
				C533.2-326.9,331.1-300,139.9-234.2C64.1-208.1-10.3-175.7-75.4-128.9c-118.3,85-201.5,217.2-227,360.6s7.2,296.2,89.1,416.7
				L-143.4,771z"/>
		</g>
		<g>
			<defs>
				<path id="SVGID_1_" d="M-143.4,771c192.1-4,374.9,74,560.9,122.1c186,48.1,400.8,61.2,553.7-55.2
					c90-68.6,145.4-172.6,224.6-253.4c71-72.3,161.5-125.3,259.3-151.8c78.4-21.2,160.4-25.6,239.4-44.1
					c79.1-18.5,158.9-54.5,204.3-121.8c59.5-88,47.7-209.2,104-299.3c37-59.2,99.2-97.8,161.4-129.5
					c58.7-29.9,129.6-71.3,125.8-137.1c-2.2-37.8-31.3-69.9-65.5-86.3s-72.9-20-110.6-22.9c-459.8-34.8-921.9,3.8-1379.9,57.6
					C533.2-326.9,331.1-300,139.9-234.2C64.1-208.1-10.3-175.7-75.4-128.9c-118.3,85-201.5,217.2-227,360.6s7.2,296.2,89.1,416.7
					L-143.4,771z"/>
			</defs>
			<clipPath id="SVGID_2_">
				<use xlink:href="#SVGID_1_"  style="overflow:visible;"/>
			</clipPath>
			
				<linearGradient id="SVGID_3_" gradientUnits="userSpaceOnUse" x1="340.31" y1="230.8" x2="979.13" y2="230.8" gradientTransform="matrix(1 0 0 -1 0 1080)">
				<stop  offset="0" style="stop-color:#FFFFFF;stop-opacity:0"/>
				<stop  offset="1" style="stop-color:#0074FF;stop-opacity:5.000000e-02"/>
			</linearGradient>
			<ellipse class="st1" cx="659.7" cy="849.2" rx="319.4" ry="309.2"/>
		</g>
		<g>
			<defs>
				<path id="SVGID_4_" d="M-143.4,771c192.1-4,374.9,74,560.9,122.1c186,48.1,400.8,61.2,553.7-55.2
					c90-68.6,145.4-172.6,224.6-253.4c71-72.3,161.5-125.3,259.3-151.8c78.4-21.2,160.4-25.6,239.4-44.1
					c79.1-18.5,158.9-54.5,204.3-121.8c59.5-88,47.7-209.2,104-299.3c37-59.2,99.2-97.8,161.4-129.5
					c58.7-29.9,129.6-71.3,125.8-137.1c-2.2-37.8-31.3-69.9-65.5-86.3s-72.9-20-110.6-22.9c-459.8-34.8-921.9,3.8-1379.9,57.6
					C533.2-326.9,331.1-300,139.9-234.2C64.1-208.1-10.3-175.7-75.4-128.9c-118.3,85-201.5,217.2-227,360.6s7.2,296.2,89.1,416.7
					L-143.4,771z"/>
			</defs>
			<clipPath id="SVGID_5_">
				<use xlink:href="#SVGID_4_"  style="overflow:visible;"/>
			</clipPath>
			
				<linearGradient id="SVGID_6_" gradientUnits="userSpaceOnUse" x1="1419.436" y1="819.2523" x2="1167.5239" y2="382.9277" gradientTransform="matrix(1 0 0 -1 0 1080)">
				<stop  offset="0" style="stop-color:#FFFFFF;stop-opacity:0"/>
				<stop  offset="1" style="stop-color:#0074FF;stop-opacity:0.1"/>
			</linearGradient>
			<circle class="st2" cx="1293.5" cy="478.9" r="251.9"/>
		</g>
		<g>
			<defs>
				<path id="SVGID_7_" d="M-143.4,771c192.1-4,374.9,74,560.9,122.1c186,48.1,400.8,61.2,553.7-55.2
					c90-68.6,145.4-172.6,224.6-253.4c71-72.3,161.5-125.3,259.3-151.8c78.4-21.2,160.4-25.6,239.4-44.1
					c79.1-18.5,158.9-54.5,204.3-121.8c59.5-88,47.7-209.2,104-299.3c37-59.2,99.2-97.8,161.4-129.5
					c58.7-29.9,129.6-71.3,125.8-137.1c-2.2-37.8-31.3-69.9-65.5-86.3s-72.9-20-110.6-22.9c-459.8-34.8-921.9,3.8-1379.9,57.6
					C533.2-326.9,331.1-300,139.9-234.2C64.1-208.1-10.3-175.7-75.4-128.9c-118.3,85-201.5,217.2-227,360.6s7.2,296.2,89.1,416.7
					L-143.4,771z"/>
			</defs>
			<clipPath id="SVGID_8_">
				<use xlink:href="#SVGID_7_"  style="overflow:visible;"/>
			</clipPath>
			
				<linearGradient id="SVGID_9_" gradientUnits="userSpaceOnUse" x1="1785.05" y1="980.52" x2="1785.05" y2="710.62" gradientTransform="matrix(1 0 0 -1 0 1080)">
				<stop  offset="0" style="stop-color:#FFFFFF;stop-opacity:0"/>
				<stop  offset="1" style="stop-color:#0074FF;stop-opacity:0.1"/>
			</linearGradient>
			<circle class="st3" cx="1785.1" cy="234.4" r="134.9"/>
		</g>
		<g>
			<defs>
				<path id="SVGID_10_" d="M-143.4,771c192.1-4,374.9,74,560.9,122.1c186,48.1,400.8,61.2,553.7-55.2
					c90-68.6,145.4-172.6,224.6-253.4c71-72.3,161.5-125.3,259.3-151.8c78.4-21.2,160.4-25.6,239.4-44.1
					c79.1-18.5,158.9-54.5,204.3-121.8c59.5-88,47.7-209.2,104-299.3c37-59.2,99.2-97.8,161.4-129.5
					c58.7-29.9,129.6-71.3,125.8-137.1c-2.2-37.8-31.3-69.9-65.5-86.3s-72.9-20-110.6-22.9c-459.8-34.8-921.9,3.8-1379.9,57.6
					C533.2-326.9,331.1-300,139.9-234.2C64.1-208.1-10.3-175.7-75.4-128.9c-118.3,85-201.5,217.2-227,360.6s7.2,296.2,89.1,416.7
					L-143.4,771z"/>
			</defs>
			<clipPath id="SVGID_11_">
				<use xlink:href="#SVGID_10_"  style="overflow:visible;"/>
			</clipPath>
			
				<linearGradient id="SVGID_12_" gradientUnits="userSpaceOnUse" x1="59.2172" y1="1227.7513" x2="-206.6772" y2="767.2087" gradientTransform="matrix(1 0 0 -1 0 1080)">
				<stop  offset="0" style="stop-color:#FFFFFF;stop-opacity:0"/>
				<stop  offset="0.1594" style="stop-color:#FCFDFF;stop-opacity:7.969929e-03"/>
				<stop  offset="0.2894" style="stop-color:#F2F8FF;stop-opacity:1.450000e-02"/>
				<stop  offset="0.4092" style="stop-color:#E1EEFF;stop-opacity:2.050000e-02"/>
				<stop  offset="0.5228" style="stop-color:#C8E1FF;stop-opacity:2.610000e-02"/>
				<stop  offset="0.6321" style="stop-color:#A9D0FF;stop-opacity:3.160000e-02"/>
				<stop  offset="0.7382" style="stop-color:#83BBFF;stop-opacity:3.690000e-02"/>
				<stop  offset="0.8416" style="stop-color:#56A3FF;stop-opacity:4.210000e-02"/>
				<stop  offset="0.9404" style="stop-color:#2387FF;stop-opacity:4.700000e-02"/>
				<stop  offset="1" style="stop-color:#0074FF;stop-opacity:5.000000e-02"/>
			</linearGradient>
			<circle class="st4" cx="-73.7" cy="82.5" r="265.9"/>
		</g>
	</g>
</g>
<g>
	
		<linearGradient id="SVGID_13_" gradientUnits="userSpaceOnUse" x1="710.7757" y1="1314.3243" x2="1086.7444" y2="938.3557" gradientTransform="matrix(1 0 0 -1 0 1080)">
		<stop  offset="0" style="stop-color:#FFFFFF;stop-opacity:0"/>
		<stop  offset="0.2785" style="stop-color:#FDFEFF;stop-opacity:1.390000e-02"/>
		<stop  offset="0.4162" style="stop-color:#F5FAFF;stop-opacity:2.080000e-02"/>
		<stop  offset="0.5229" style="stop-color:#E8F2FF;stop-opacity:2.610000e-02"/>
		<stop  offset="0.6139" style="stop-color:#D5E8FF;stop-opacity:3.070000e-02"/>
		<stop  offset="0.6947" style="stop-color:#BDDBFF;stop-opacity:3.470000e-02"/>
		<stop  offset="0.7683" style="stop-color:#9FCBFF;stop-opacity:3.840000e-02"/>
		<stop  offset="0.8365" style="stop-color:#7CB7FF;stop-opacity:4.180000e-02"/>
		<stop  offset="0.9005" style="stop-color:#52A1FF;stop-opacity:4.500000e-02"/>
		<stop  offset="0.9588" style="stop-color:#2588FF;stop-opacity:4.790000e-02"/>
		<stop  offset="1" style="stop-color:#0074FF;stop-opacity:5.000000e-02"/>
	</linearGradient>
	<circle class="st5" cx="898.8" cy="-46.3" r="265.9"/>
	
		<linearGradient id="SVGID_14_" gradientUnits="userSpaceOnUse" x1="80.05" y1="498.56" x2="162.93" y2="498.56" gradientTransform="matrix(1 0 0 -1 0 1080)">
		<stop  offset="0" style="stop-color:#FFFFFF;stop-opacity:0"/>
		<stop  offset="1" style="stop-color:#0074FF;stop-opacity:5.000000e-02"/>
	</linearGradient>
	<circle class="st6" cx="121.5" cy="581.4" r="41.4"/>
	
		<linearGradient id="SVGID_15_" gradientUnits="userSpaceOnUse" x1="1533.7" y1="985.67" x2="1450.8201" y2="985.67" gradientTransform="matrix(1 0 0 -1 0 1080)">
		<stop  offset="0" style="stop-color:#FFFFFF;stop-opacity:0"/>
		<stop  offset="1" style="stop-color:#0074FF;stop-opacity:5.000000e-02"/>
	</linearGradient>
	<circle class="st7" cx="1492.3" cy="94.3" r="41.4"/>
</g>
</svg>
